<svg xmlns="http://www.w3.org/2000/svg" width="1200" height="720" viewBox="0 0 1200 720">
  <defs>
    <linearGradient id="bg" x1="0" y1="0" x2="0" y2="1">
      <stop offset="0%" stop-color="#0a0e14"/><stop offset="100%" stop-color="#0f141f"/>
    </linearGradient>
    <linearGradient id="thermo" x1="0" y1="0" x2="0" y2="1">
      <stop offset="0%" stop-color="#ef4444"/><stop offset="25%" stop-color="#f97316"/>
      <stop offset="50%" stop-color="#eab308"/><stop offset="75%" stop-color="#22c55e"/>
      <stop offset="100%" stop-color="#0ea5e9"/>
    </linearGradient>
  </defs>
  <rect width="1200" height="720" fill="url(#bg)"/>
  <text x="32" y="42" font-family="system-ui,sans-serif" font-size="22" font-weight="700" fill="#e8ecf2">全球情绪温度计</text>
  <text x="32" y="60" font-family="system-ui,sans-serif" font-size="13" fill="#6b7280">综合12项宏观经济与情绪指标 实时计算市场热度 自动更新</text>
  <circle cx="940" cy="28" r="4" fill="#22c55e"/>
  <text x="950" y="32" font-family="system-ui,sans-serif" font-size="12" fill="#6b7280">Live</text>
  <rect x="72" y="80" width="260" height="340" rx="12" fill="#12171f" stroke="#1e2634" stroke-width="1"/>
  <text x="202" y="104" font-family="system-ui,sans-serif" font-size="11" fill="#6b7280" text-anchor="middle" letter-spacing="2">市场情绪温度</text>
  <text x="202" y="120" font-family="system-ui,sans-serif" font-size="13" fill="#e8ecf2" text-anchor="middle" font-weight="600">MACRO THERMOMETER</text>
  <rect x="188" y="140" width="24" height="180" rx="12" fill="#1e2634" stroke="#1e2634" stroke-width="2"/>
  <rect x="188" y="206" width="24" height="114" rx="12" fill="#eab308" opacity="0.7"/>
  <circle cx="200" cy="324" r="21" fill="#eab308" stroke="#1e2634" stroke-width="2"/>
  <text x="202" y="370" font-family="system-ui,sans-serif" font-size="40" font-weight="800" fill="#eab308" text-anchor="middle">62</text>
  <text x="202" y="390" font-family="system-ui,sans-serif" font-size="16" font-weight="600" fill="#eab308" text-anchor="middle">中性</text>
  <text x="202" y="406" font-family="system-ui,sans-serif" font-size="10" fill="#6b7280" text-anchor="middle">市场情绪中性，无明显方向性信号</text>
  <text x="96" y="420" font-family="system-ui,sans-serif" font-size="9" fill="#0ea5e9">极度恐慌</text>
  <text x="308" y="420" font-family="system-ui,sans-serif" font-size="9" fill="#ef4444" text-anchor="end">极度贪婪</text>
  <g transform="translate(360,80)">
    <rect x="0" y="0" width="190" height="95" rx="10" fill="#12171f" stroke="#1e2634" stroke-width="1"/>
    <text x="16" y="22" font-family="system-ui,sans-serif" font-size="11" fill="#6b7280">VIX 恐慌指数</text>
    <text x="160" y="22" font-family="system-ui,sans-serif" font-size="9" fill="#6b7280" text-anchor="end">w15</text>
    <text x="16" y="48" font-family="system-ui,sans-serif" font-size="18" font-weight="700" fill="#e8ecf2">15.64</text>
    <text x="16" y="66" font-family="system-ui,sans-serif" font-size="13" font-weight="600" fill="#f97316">78.2</text>
    <rect x="0" y="92" width="148" height="3" rx="3" fill="#f97316"/>
    <rect x="204" y="0" width="190" height="95" rx="10" fill="#12171f" stroke="#1e2634" stroke-width="1"/>
    <text x="220" y="22" font-family="system-ui,sans-serif" font-size="11" fill="#6b7280">Put/Call 比率</text>
    <text x="374" y="22" font-family="system-ui,sans-serif" font-size="9" fill="#6b7280" text-anchor="end">w12</text>
    <text x="220" y="48" font-family="system-ui,sans-serif" font-size="18" font-weight="700" fill="#e8ecf2">0.66</text>
    <text x="220" y="66" font-family="system-ui,sans-serif" font-size="13" font-weight="600" fill="#f97316">72.1</text>
    <rect x="204" y="92" width="137" height="3" rx="3" fill="#f97316"/>
    <rect x="408" y="0" width="190" height="95" rx="10" fill="#12171f" stroke="#1e2634" stroke-width="1"/>
    <text x="424" y="22" font-family="system-ui,sans-serif" font-size="11" fill="#6b7280">AAII 牛熊差</text>
    <text x="578" y="22" font-family="system-ui,sans-serif" font-size="9" fill="#6b7280" text-anchor="end">w12</text>
    <text x="424" y="48" font-family="system-ui,sans-serif" font-size="18" font-weight="700" fill="#e8ecf2">+5.2</text>
    <text x="424" y="66" font-family="system-ui,sans-serif" font-size="13" font-weight="600" fill="#22c55e">32.5</text>
    <rect x="408" y="92" width="62" height="3" rx="3" fill="#22c55e"/>
    <rect x="612" y="0" width="190" height="95" rx="10" fill="#12171f" stroke="#1e2634" stroke-width="1"/>
    <text x="628" y="22" font-family="system-ui,sans-serif" font-size="11" fill="#6b7280">Fear &amp; Greed</text>
    <text x="782" y="22" font-family="system-ui,sans-serif" font-size="9" fill="#6b7280" text-anchor="end">w10</text>
    <text x="628" y="48" font-family="system-ui,sans-serif" font-size="18" font-weight="700" fill="#e8ecf2">52</text>
    <text x="628" y="66" font-family="system-ui,sans-serif" font-size="13" font-weight="600" fill="#eab308">52.0</text>
    <rect x="612" y="92" width="99" height="3" rx="3" fill="#eab308"/>
    <rect x="0" y="108" width="190" height="95" rx="10" fill="#12171f" stroke="#1e2634" stroke-width="1"/>
    <text x="16" y="130" font-family="system-ui,sans-serif" font-size="11" fill="#6b7280">10Y-2Y 利差</text>
    <text x="160" y="130" font-family="system-ui,sans-serif" font-size="9" fill="#6b7280" text-anchor="end">w10</text>
    <text x="16" y="156" font-family="system-ui,sans-serif" font-size="18" font-weight="700" fill="#e8ecf2">+0.68%</text>
    <text x="16" y="174" font-family="system-ui,sans-serif" font-size="13" font-weight="600" fill="#f97316">63.6</text>
    <rect x="0" y="200" width="121" height="3" rx="3" fill="#f97316"/>
    <rect x="204" y="108" width="190" height="95" rx="10" fill="#12171f" stroke="#1e2634" stroke-width="1"/>
    <text x="220" y="130" font-family="system-ui,sans-serif" font-size="11" fill="#6b7280">高收益债利差 OAS</text>
    <text x="374" y="130" font-family="system-ui,sans-serif" font-size="9" fill="#6b7280" text-anchor="end">w10</text>
    <text x="220" y="156" font-family="system-ui,sans-serif" font-size="18" font-weight="700" fill="#e8ecf2">2.68</text>
    <text x="220" y="174" font-family="system-ui,sans-serif" font-size="13" font-weight="600" fill="#22c55e">20.5</text>
    <rect x="204" y="200" width="39" height="3" rx="3" fill="#22c55e"/>
    <rect x="408" y="108" width="190" height="95" rx="10" fill="#12171f" stroke="#1e2634" stroke-width="1"/>
    <text x="424" y="130" font-family="system-ui,sans-serif" font-size="11" fill="#6b7280">美元指数 DXY</text>
    <text x="578" y="130" font-family="system-ui,sans-serif" font-size="9" fill="#6b7280" text-anchor="end">w8</text>
    <text x="424" y="156" font-family="system-ui,sans-serif" font-size="18" font-weight="700" fill="#e8ecf2">99.21</text>
    <text x="424" y="174" font-family="system-ui,sans-serif" font-size="13" font-weight="600" fill="#eab308">47.4</text>
    <rect x="408" y="200" width="90" height="3" rx="3" fill="#eab308"/>
    <rect x="612" y="108" width="190" height="95" rx="10" fill="#12171f" stroke="#1e2634" stroke-width="1"/>
    <text x="628" y="130" font-family="system-ui,sans-serif" font-size="11" fill="#6b7280">黄金 XAU</text>
    <text x="782" y="130" font-family="system-ui,sans-serif" font-size="9" fill="#6b7280" text-anchor="end">w8</text>
    <text x="628" y="156" font-family="system-ui,sans-serif" font-size="18" font-weight="700" fill="#e8ecf2">$4,492</text>
    <text x="628" y="174" font-family="system-ui,sans-serif" font-size="13" font-weight="600" fill="#0ea5e9">4.2</text>
    <rect x="612" y="200" width="8" height="3" rx="3" fill="#0ea5e9"/>
    <rect x="0" y="216" width="190" height="95" rx="10" fill="#12171f" stroke="#1e2634" stroke-width="1"/>
    <text x="16" y="238" font-family="system-ui,sans-serif" font-size="11" fill="#6b7280">Polymarket 宏观热度</text>
    <text x="160" y="238" font-family="system-ui,sans-serif" font-size="9" fill="#6b7280" text-anchor="end">w8</text>
    <text x="16" y="264" font-family="system-ui,sans-serif" font-size="18" font-weight="700" fill="#e8ecf2">41.2</text>
    <rect x="0" y="308" width="78" height="3" rx="3" fill="#22c55e"/>
    <rect x="204" y="216" width="190" height="95" rx="10" fill="#12171f" stroke="#1e2634" stroke-width="1"/>
    <text x="220" y="238" font-family="system-ui,sans-serif" font-size="11" fill="#6b7280">S&P 500 vs 200MA</text>
    <text x="374" y="238" font-family="system-ui,sans-serif" font-size="9" fill="#6b7280" text-anchor="end">w5</text>
    <text x="220" y="264" font-family="system-ui,sans-serif" font-size="18" font-weight="700" fill="#e8ecf2">+13.6%</text>
    <text x="220" y="282" font-family="system-ui,sans-serif" font-size="13" font-weight="600" fill="#f97316">72.5</text>
    <rect x="204" y="308" width="138" height="3" rx="3" fill="#f97316"/>
    <rect x="408" y="216" width="190" height="95" rx="10" fill="#12171f" stroke="#1e2634" stroke-width="1"/>
    <text x="424" y="238" font-family="system-ui,sans-serif" font-size="11" fill="#6b7280">比特币 F&amp;G</text>
    <text x="578" y="238" font-family="system-ui,sans-serif" font-size="9" fill="#6b7280" text-anchor="end">w5</text>
    <text x="424" y="264" font-family="system-ui,sans-serif" font-size="18" font-weight="700" fill="#e8ecf2">12</text>
    <text x="424" y="282" font-family="system-ui,sans-serif" font-size="13" font-weight="600" fill="#0ea5e9">12.0</text>
    <rect x="408" y="308" width="23" height="3" rx="3" fill="#0ea5e9"/>
    <rect x="612" y="216" width="190" height="95" rx="10" fill="#12171f" stroke="#1e2634" stroke-width="1"/>
    <text x="628" y="238" font-family="system-ui,sans-serif" font-size="11" fill="#6b7280">TED 利差</text>
    <text x="782" y="238" font-family="system-ui,sans-serif" font-size="9" fill="#6b7280" text-anchor="end">w5</text>
    <text x="628" y="264" font-family="system-ui,sans-serif" font-size="18" font-weight="700" fill="#e8ecf2">0.16</text>
    <text x="628" y="282" font-family="system-ui,sans-serif" font-size="13" font-weight="600" fill="#f97316">76.2</text>
    <rect x="612" y="308" width="145" height="3" rx="3" fill="#f97316"/>
  </g>
  <g transform="translate(32,440)">
    <rect x="0" y="0" width="1136" height="48" rx="10" fill="#12171f" stroke="#1e2634" stroke-width="1"/>
    <text x="60" y="22" font-family="system-ui,sans-serif" font-size="14" fill="#6b7280">S&amp;P 500</text>
    <text x="60" y="40" font-family="system-ui,sans-serif" font-size="16" font-weight="700" fill="#22c55e">7,584 +0.41%</text>
    <line x1="240" y1="10" x2="240" y2="38" stroke="#1e2634" stroke-width="1"/>
    <text x="280" y="22" font-family="system-ui,sans-serif" font-size="14" fill="#6b7280">VIX</text>
    <text x="280" y="40" font-family="system-ui,sans-serif" font-size="16" font-weight="700" fill="#22c55e">15.64</text>
    <line x1="400" y1="10" x2="400" y2="38" stroke="#1e2634" stroke-width="1"/>
    <text x="440" y="22" font-family="system-ui,sans-serif" font-size="14" fill="#6b7280">美元指数</text>
    <text x="440" y="40" font-family="system-ui,sans-serif" font-size="16" font-weight="700" fill="#e8ecf2">99.21</text>
    <line x1="560" y1="10" x2="560" y2="38" stroke="#1e2634" stroke-width="1"/>
    <text x="600" y="22" font-family="system-ui,sans-serif" font-size="14" fill="#6b7280">黄金 XAU</text>
    <text x="600" y="40" font-family="system-ui,sans-serif" font-size="16" font-weight="700" fill="#eab308">$4,492</text>
    <line x1="740" y1="10" x2="740" y2="38" stroke="#1e2634" stroke-width="1"/>
    <text x="780" y="22" font-family="system-ui,sans-serif" font-size="14" fill="#6b7280">10Y 美债</text>
    <text x="780" y="40" font-family="system-ui,sans-serif" font-size="16" font-weight="700" fill="#e8ecf2">4.48%</text>
  </g>
  <g transform="translate(32,508)">
    <rect x="0" y="0" width="555" height="190" rx="12" fill="#12171f" stroke="#1e2634" stroke-width="1"/>
    <text x="20" y="24" font-family="system-ui,sans-serif" font-size="13" font-weight="600" fill="#e8ecf2">温度趋势</text>
    <line x1="80" y1="60" x2="530" y2="60" stroke="#1e2634" stroke-width="1"/>
    <line x1="80" y1="88" x2="530" y2="88" stroke="#1e2634" stroke-width="1"/>
    <line x1="80" y1="116" x2="530" y2="116" stroke="#1e2634" stroke-width="1"/>
    <line x1="80" y1="144" x2="530" y2="144" stroke="#1e2634" stroke-width="1"/>
    <text x="74" y="40" font-family="system-ui,sans-serif" font-size="9" fill="#6b7280" text-anchor="end">100</text>
    <text x="74" y="64" font-family="system-ui,sans-serif" font-size="9" fill="#6b7280" text-anchor="end">75</text>
    <text x="74" y="92" font-family="system-ui,sans-serif" font-size="9" fill="#6b7280" text-anchor="end">50</text>
    <text x="74" y="120" font-family="system-ui,sans-serif" font-size="9" fill="#6b7280" text-anchor="end">25</text>
    <text x="74" y="148" font-family="system-ui,sans-serif" font-size="9" fill="#6b7280" text-anchor="end">0</text>
    <path d="M80,142 L100,138 L120,130 L140,122 L160,118 L180,108 L200,96 L220,90 L240,86 L260,92 L280,100 L300,96 L320,88 L340,78 L360,70 L380,68 L400,64 L420,60 L440,62 L460,58 L480,54 L500,52 L520,48 L530,50 L530,146 L80,146 Z" fill="#eab308" opacity="0.08"/>
    <path d="M80,142 L100,138 L120,130 L140,122 L160,118 L180,108 L200,96 L220,90 L240,86 L260,92 L280,100 L300,96 L320,88 L340,78 L360,70 L380,68 L400,64 L420,60 L440,62 L460,58 L480,54 L500,52 L520,48 L530,50" fill="none" stroke="#eab308" stroke-width="2"/>
  </g>
  <g transform="translate(608,508)">
    <rect x="0" y="0" width="560" height="190" rx="12" fill="#12171f" stroke="#1e2634" stroke-width="1"/>
    <text x="20" y="24" font-family="system-ui,sans-serif" font-size="13" font-weight="600" fill="#e8ecf2">Polymarket 宏观盘</text>
    <rect x="16" y="36" width="125" height="70" rx="8" fill="#1a1f2b" stroke="#1e2634" stroke-width="1"/>
    <text x="24" y="52" font-family="system-ui,sans-serif" font-size="10" fill="#6b7280">Fed 决议（本月）</text>
    <text x="24" y="72" font-family="system-ui,sans-serif" font-size="18" font-weight="800" fill="#e8ecf2">98.6% 不变</text>
    <rect x="16" y="103" width="125" height="4" rx="2" fill="#1e2634"/>
    <rect x="16" y="103" width="2" height="4" rx="2" fill="#22c55e"/>
    <rect x="151" y="36" width="125" height="70" rx="8" fill="#1a1f2b" stroke="#1e2634" stroke-width="1"/>
    <text x="159" y="52" font-family="system-ui,sans-serif" font-size="10" fill="#6b7280">2026 降息预期</text>
    <text x="159" y="72" font-family="system-ui,sans-serif" font-size="18" font-weight="800" fill="#e8ecf2">0.6 次</text>
    <rect x="151" y="103" width="125" height="4" rx="2" fill="#1e2634"/>
    <rect x="151" y="103" width="15" height="4" rx="2" fill="#22c55e"/>
    <rect x="286" y="36" width="125" height="70" rx="8" fill="#1a1f2b" stroke="#1e2634" stroke-width="1"/>
    <text x="294" y="52" font-family="system-ui,sans-serif" font-size="10" fill="#6b7280">美伊和平概率</text>
    <text x="294" y="72" font-family="system-ui,sans-serif" font-size="18" font-weight="800" fill="#ef4444">0.0%</text>
    <rect x="286" y="103" width="125" height="4" rx="2" fill="#1e2634"/>
    <rect x="286" y="103" width="125" height="4" rx="2" fill="#ef4444"/>
    <rect x="421" y="36" width="125" height="70" rx="8" fill="#1a1f2b" stroke="#1e2634" stroke-width="1"/>
    <text x="429" y="52" font-family="system-ui,sans-serif" font-size="10" fill="#6b7280">加密投机热度</text>
    <text x="429" y="72" font-family="system-ui,sans-serif" font-size="18" font-weight="800" fill="#f97316">68.0</text>
    <rect x="421" y="103" width="125" height="4" rx="2" fill="#1e2634"/>
    <rect x="421" y="103" width="85" height="4" rx="2" fill="#f97316"/>
    <text x="20" y="148" font-family="system-ui,sans-serif" font-size="11" fill="#6b7280">Polymarket 宏观热度合成: 利率+地缘+加密</text>
    <text x="360" y="148" font-family="system-ui,sans-serif" font-size="24" font-weight="800" fill="#eab308" text-anchor="end">41.2</text>
    <rect x="260" y="156" width="100" height="6" rx="3" fill="#1e2634"/>
    <rect x="260" y="156" width="41" height="6" rx="3" fill="#eab308"/>
  </g>
  <text x="600" y="700" font-family="system-ui,sans-serif" font-size="11" fill="#374151" text-anchor="middle">数据来源: Yahoo Finance  CNN Fear &amp; Greed  Polymarket  每5分钟自动更新</text>
  <text x="600" y="715" font-family="system-ui,sans-serif" font-size="10" fill="#374151" text-anchor="middle">非投资建议  数据有15分钟延迟</text>
</svg>