<svg width="1600" height="900" viewBox="0 0 1600 900" fill="none" xmlns="http://www.w3.org/2000/svg">
  <rect width="1600" height="900" fill="#0A0E14"/>
  <rect x="40" y="36" width="1520" height="828" rx="28" fill="#12171F" stroke="#1E2634"/>
  <text x="88" y="98" fill="#E8ECF2" font-family="Arial, sans-serif" font-size="34" font-weight="700">Global Sentiment Thermometer</text>
  <text x="88" y="132" fill="#6B7280" font-family="Arial, sans-serif" font-size="18">Bilingual US market macro dashboard · English / 中文</text>

  <rect x="1210" y="74" width="92" height="36" rx="10" fill="#252D3A" stroke="#374151"/>
  <text x="1240" y="98" fill="#E8ECF2" font-family="Arial, sans-serif" font-size="16" font-weight="700">EN</text>
  <rect x="1306" y="74" width="110" height="36" rx="10" fill="#1A1F2B" stroke="#1E2634"/>
  <text x="1342" y="98" fill="#6B7280" font-family="Arial, sans-serif" font-size="16" font-weight="700">中文</text>
  <circle cx="1452" cy="92" r="6" fill="#22C55E"/>
  <text x="1468" y="98" fill="#C8CDD6" font-family="Arial, sans-serif" font-size="15">Last updated · Jun 5, 2026</text>

  <rect x="78" y="170" width="330" height="500" rx="22" fill="#0F141C" stroke="#1E2634"/>
  <text x="104" y="212" fill="#6B7280" font-family="Arial, sans-serif" font-size="16" letter-spacing="2">COMPOSITE SCORE</text>
  <rect x="198" y="246" width="52" height="286" rx="26" fill="#1E2634" stroke="#2A3445" stroke-width="3"/>
  <rect x="198" y="328" width="52" height="204" rx="26" fill="url(#thermo)"/>
  <circle cx="224" cy="540" r="42" fill="#F97316" stroke="#2A3445" stroke-width="3"/>
  <text x="314" y="276" fill="#6B7280" font-family="Arial, sans-serif" font-size="12">100</text>
  <text x="314" y="348" fill="#6B7280" font-family="Arial, sans-serif" font-size="12">75</text>
  <text x="314" y="420" fill="#6B7280" font-family="Arial, sans-serif" font-size="12">50</text>
  <text x="314" y="492" fill="#6B7280" font-family="Arial, sans-serif" font-size="12">25</text>
  <text x="314" y="562" fill="#6B7280" font-family="Arial, sans-serif" font-size="12">0</text>
  <text x="154" y="626" fill="#F97316" font-family="Arial, sans-serif" font-size="68" font-weight="800">58°</text>
  <text x="162" y="670" fill="#F97316" font-family="Arial, sans-serif" font-size="28" font-weight="700">Neutral / 中性</text>
  <text x="104" y="712" fill="#9CA3AF" font-family="Arial, sans-serif" font-size="17">Balanced macro sentiment. No dominant risk signal.</text>

  <rect x="440" y="170" width="1078" height="150" rx="22" fill="#0F141C" stroke="#1E2634"/>
  <text x="468" y="212" fill="#6B7280" font-family="Arial, sans-serif" font-size="16" letter-spacing="2">MARKET SNAPSHOT</text>
  <g>
    <rect x="468" y="234" width="186" height="62" rx="14" fill="#1A1F2B" stroke="#1E2634"/>
    <text x="486" y="258" fill="#6B7280" font-family="Arial, sans-serif" font-size="13">S&amp;P 500</text>
    <text x="486" y="286" fill="#E8ECF2" font-family="Arial, sans-serif" font-size="28" font-weight="700">7,584.31</text>
    <text x="610" y="286" fill="#22C55E" font-family="Arial, sans-serif" font-size="14">+0.34%</text>
  </g>
  <g>
    <rect x="668" y="234" width="160" height="62" rx="14" fill="#1A1F2B" stroke="#1E2634"/>
    <text x="686" y="258" fill="#6B7280" font-family="Arial, sans-serif" font-size="13">VIX</text>
    <text x="686" y="286" fill="#E8ECF2" font-family="Arial, sans-serif" font-size="28" font-weight="700">15.65</text>
  </g>
  <g>
    <rect x="842" y="234" width="160" height="62" rx="14" fill="#1A1F2B" stroke="#1E2634"/>
    <text x="860" y="258" fill="#6B7280" font-family="Arial, sans-serif" font-size="13">DXY</text>
    <text x="860" y="286" fill="#E8ECF2" font-family="Arial, sans-serif" font-size="28" font-weight="700">99.20</text>
  </g>
  <g>
    <rect x="1016" y="234" width="160" height="62" rx="14" fill="#1A1F2B" stroke="#1E2634"/>
    <text x="1034" y="258" fill="#6B7280" font-family="Arial, sans-serif" font-size="13">Gold</text>
    <text x="1034" y="286" fill="#E8ECF2" font-family="Arial, sans-serif" font-size="28" font-weight="700">4,494.6</text>
  </g>
  <g>
    <rect x="1190" y="234" width="160" height="62" rx="14" fill="#1A1F2B" stroke="#1E2634"/>
    <text x="1208" y="258" fill="#6B7280" font-family="Arial, sans-serif" font-size="13">US 10Y</text>
    <text x="1208" y="286" fill="#E8ECF2" font-family="Arial, sans-serif" font-size="28" font-weight="700">4.52%</text>
  </g>

  <rect x="440" y="344" width="1078" height="220" rx="22" fill="#0F141C" stroke="#1E2634"/>
  <text x="468" y="386" fill="#6B7280" font-family="Arial, sans-serif" font-size="16" letter-spacing="2">WEIGHTED INDICATORS</text>
  <g font-family="Arial, sans-serif">
    <rect x="468" y="408" width="244" height="64" rx="14" fill="#1A1F2B" stroke="#1E2634"/>
    <text x="486" y="432" fill="#C8CDD6" font-size="14">VIX Fear Index</text>
    <text x="486" y="460" fill="#E8ECF2" font-size="28" font-weight="700">15.65</text>
    <text x="662" y="460" fill="#22C55E" font-size="14">81.2°</text>
    <rect x="468" y="468" width="198" height="4" rx="2" fill="#22C55E"/>

    <rect x="728" y="408" width="244" height="64" rx="14" fill="#1A1F2B" stroke="#1E2634"/>
    <text x="746" y="432" fill="#C8CDD6" font-size="14">Fear &amp; Greed Index</text>
    <text x="746" y="460" fill="#E8ECF2" font-size="28" font-weight="700">50</text>
    <text x="912" y="460" fill="#EAB308" font-size="14">50.0°</text>
    <rect x="728" y="468" width="122" height="4" rx="2" fill="#EAB308"/>

    <rect x="988" y="408" width="244" height="64" rx="14" fill="#1A1F2B" stroke="#1E2634"/>
    <text x="1006" y="432" fill="#C8CDD6" font-size="14">Polymarket Macro Heat</text>
    <text x="1006" y="460" fill="#E8ECF2" font-size="28" font-weight="700">60.9</text>
    <text x="1178" y="460" fill="#F97316" font-size="14">60.9°</text>
    <rect x="988" y="468" width="148" height="4" rx="2" fill="#F97316"/>

    <rect x="1248" y="408" width="244" height="64" rx="14" fill="#1A1F2B" stroke="#1E2634"/>
    <text x="1266" y="432" fill="#C8CDD6" font-size="14">Bitcoin Fear &amp; Greed</text>
    <text x="1266" y="460" fill="#E8ECF2" font-size="28" font-weight="700">55</text>
    <text x="1438" y="460" fill="#EAB308" font-size="14">45.0°</text>
    <rect x="1248" y="468" width="110" height="4" rx="2" fill="#EAB308"/>
  </g>

  <rect x="440" y="588" width="690" height="234" rx="22" fill="#0F141C" stroke="#1E2634"/>
  <text x="468" y="630" fill="#6B7280" font-family="Arial, sans-serif" font-size="16" letter-spacing="2">SENTIMENT TREND</text>
  <rect x="468" y="650" width="56" height="28" rx="8" fill="#252D3A" stroke="#374151"/>
  <text x="486" y="669" fill="#E8ECF2" font-family="Arial, sans-serif" font-size="13">1M</text>
  <rect x="532" y="650" width="56" height="28" rx="8" fill="#1A1F2B" stroke="#1E2634"/>
  <text x="550" y="669" fill="#6B7280" font-family="Arial, sans-serif" font-size="13">3M</text>
  <rect x="596" y="650" width="56" height="28" rx="8" fill="#1A1F2B" stroke="#1E2634"/>
  <text x="614" y="669" fill="#6B7280" font-family="Arial, sans-serif" font-size="13">1Y</text>
  <path d="M490 760 C560 710, 630 730, 700 690 S850 705, 930 670 S1040 650, 1090 690" stroke="#F97316" stroke-width="4" fill="none" stroke-linecap="round"/>
  <path d="M490 760 C560 710, 630 730, 700 690 S850 705, 930 670 S1040 650, 1090 690 L1090 790 L490 790 Z" fill="url(#area)" opacity="0.6"/>

  <rect x="1154" y="588" width="364" height="234" rx="22" fill="#0F141C" stroke="#1E2634"/>
  <text x="1182" y="630" fill="#6B7280" font-family="Arial, sans-serif" font-size="16" letter-spacing="2">POLYMARKET MACRO PANEL</text>
  <rect x="1182" y="652" width="308" height="52" rx="14" fill="#1A1F2B" stroke="#1E2634"/>
  <text x="1200" y="674" fill="#9CA3AF" font-family="Arial, sans-serif" font-size="12">Fed decision (this month)</text>
  <text x="1200" y="695" fill="#E8ECF2" font-family="Arial, sans-serif" font-size="24" font-weight="700">87.0% no change</text>
  <rect x="1200" y="700" width="180" height="4" rx="2" fill="#22C55E"/>
  <rect x="1182" y="716" width="308" height="52" rx="14" fill="#1A1F2B" stroke="#1E2634"/>
  <text x="1200" y="738" fill="#9CA3AF" font-family="Arial, sans-serif" font-size="12">US-Iran peace odds</text>
  <text x="1200" y="759" fill="#E8ECF2" font-family="Arial, sans-serif" font-size="24" font-weight="700">31.0%</text>
  <rect x="1200" y="764" width="98" height="4" rx="2" fill="#F97316"/>

  <defs>
    <linearGradient id="thermo" x1="224" y1="246" x2="224" y2="532" gradientUnits="userSpaceOnUse">
      <stop stop-color="#EF4444"/>
      <stop offset="0.35" stop-color="#F97316"/>
      <stop offset="0.68" stop-color="#EAB308"/>
      <stop offset="1" stop-color="#22C55E"/>
    </linearGradient>
    <linearGradient id="area" x1="790" y1="680" x2="790" y2="790" gradientUnits="userSpaceOnUse">
      <stop stop-color="#F97316" stop-opacity="0.45"/>
      <stop offset="1" stop-color="#22C55E" stop-opacity="0.06"/>
    </linearGradient>
  </defs>
</svg>
